<svg width="16" height="17" viewBox="0 0 16 17" fill="none" xmlns="http://www.w3.org/2000/svg">
<g clip-path="url(#clip0_66_584)">
<path d="M8.2 10.1C7.97333 10.1 7.78347 10.0232 7.6304 9.8696C7.4768 9.71653 7.4 9.52667 7.4 9.3C7.4 9.07333 7.4768 8.8832 7.6304 8.7296C7.78347 8.57653 7.97333 8.5 8.2 8.5C8.42667 8.5 8.6168 8.57653 8.7704 8.7296C8.92347 8.8832 9 9.07333 9 9.3C9 9.52667 8.92347 9.71653 8.7704 9.8696C8.6168 10.0232 8.42667 10.1 8.2 10.1ZM5 10.1C4.77333 10.1 4.5832 10.0232 4.4296 9.8696C4.27653 9.71653 4.2 9.52667 4.2 9.3C4.2 9.07333 4.27653 8.8832 4.4296 8.7296C4.5832 8.57653 4.77333 8.5 5 8.5C5.22667 8.5 5.4168 8.57653 5.5704 8.7296C5.72347 8.8832 5.8 9.07333 5.8 9.3C5.8 9.52667 5.72347 9.71653 5.5704 9.8696C5.4168 10.0232 5.22667 10.1 5 10.1ZM11.4 10.1C11.1733 10.1 10.9835 10.0232 10.8304 9.8696C10.6768 9.71653 10.6 9.52667 10.6 9.3C10.6 9.07333 10.6768 8.8832 10.8304 8.7296C10.9835 8.57653 11.1733 8.5 11.4 8.5C11.6267 8.5 11.8165 8.57653 11.9696 8.7296C12.1232 8.8832 12.2 9.07333 12.2 9.3C12.2 9.52667 12.1232 9.71653 11.9696 9.8696C11.8165 10.0232 11.6267 10.1 11.4 10.1ZM8.2 13.3C7.97333 13.3 7.78347 13.2232 7.6304 13.0696C7.4768 12.9165 7.4 12.7267 7.4 12.5C7.4 12.2733 7.4768 12.0835 7.6304 11.9304C7.78347 11.7768 7.97333 11.7 8.2 11.7C8.42667 11.7 8.6168 11.7768 8.7704 11.9304C8.92347 12.0835 9 12.2733 9 12.5C9 12.7267 8.92347 12.9165 8.7704 13.0696C8.6168 13.2232 8.42667 13.3 8.2 13.3ZM5 13.3C4.77333 13.3 4.5832 13.2232 4.4296 13.0696C4.27653 12.9165 4.2 12.7267 4.2 12.5C4.2 12.2733 4.27653 12.0835 4.4296 11.9304C4.5832 11.7768 4.77333 11.7 5 11.7C5.22667 11.7 5.4168 11.7768 5.5704 11.9304C5.72347 12.0835 5.8 12.2733 5.8 12.5C5.8 12.7267 5.72347 12.9165 5.5704 13.0696C5.4168 13.2232 5.22667 13.3 5 13.3ZM11.4 13.3C11.1733 13.3 10.9835 13.2232 10.8304 13.0696C10.6768 12.9165 10.6 12.7267 10.6 12.5C10.6 12.2733 10.6768 12.0835 10.8304 11.9304C10.9835 11.7768 11.1733 11.7 11.4 11.7C11.6267 11.7 11.8165 11.7768 11.9696 11.9304C12.1232 12.0835 12.2 12.2733 12.2 12.5C12.2 12.7267 12.1232 12.9165 11.9696 13.0696C11.8165 13.2232 11.6267 13.3 11.4 13.3ZM2.6 16.5C2.16 16.5 1.7832 16.3435 1.4696 16.0304C1.15653 15.7168 1 15.34 1 14.9V3.7C1 3.26 1.15653 2.88347 1.4696 2.5704C1.7832 2.2568 2.16 2.1 2.6 2.1H3.4V0.5H5V2.1H11.4V0.5H13V2.1H13.8C14.24 2.1 14.6168 2.2568 14.9304 2.5704C15.2435 2.88347 15.4 3.26 15.4 3.7V14.9C15.4 15.34 15.2435 15.7168 14.9304 16.0304C14.6168 16.3435 14.24 16.5 13.8 16.5H2.6ZM2.6 14.9H13.8V6.9H2.6V14.9Z" fill="#AAAAAA"/>
</g>
<defs>
<clipPath id="clip0_66_584">
<rect width="16" height="16" fill="white" transform="translate(0 0.5)"/>
</clipPath>
</defs>
</svg>
