<svg width="77" height="64" viewBox="0 0 77 64" fill="none" xmlns="http://www.w3.org/2000/svg">
<g filter="url(#filter0_d_24_3)">
<path fill-rule="evenodd" clip-rule="evenodd" d="M48.6 34.3445C48.6019 34.3445 48.6038 34.3445 48.6057 34.3445C48.6066 34.3445 48.6048 34.3445 48.6057 34.3445C49.8297 34.3469 50.9286 34.872 51.6666 35.6994C52.2694 36.3751 52.6334 37.2524 52.6334 38.2111C52.6334 39.9745 51.4021 41.4621 49.7189 41.9271C49.3653 42.0247 48.9919 42.0773 48.6057 42.0778H41.5417C40.9848 42.0778 40.5334 42.5106 40.5334 43.0445C40.5334 43.5783 40.9848 44.0111 41.5417 44.0111L44.5667 44.0111C46.0596 44.0111 47.3631 44.7887 48.0605 45.9445C48.4036 46.5132 48.6 47.1735 48.6 47.8778C48.6 50.0133 46.7943 51.7445 44.5667 51.7445H36.5L36.4543 51.7442H20.3667C13.6841 51.7442 8.26672 46.5507 8.26672 40.1442V26.6109C8.26672 24.7242 8.73655 22.9427 9.57016 21.3681C9.64409 19.1924 10.8745 17.1075 13.0043 15.9744L33.0925 5.28715C35.0402 4.25092 37.4954 4.9246 38.5763 6.79184C39.4079 8.22854 39.1837 9.95325 38.1488 11.1442C37.8387 11.5011 37.4558 11.8101 37.0067 12.049L31.4395 15.0109L64.7334 15.0109C66.9609 15.0109 68.7667 16.7421 68.7667 18.8776C68.7667 21.0131 66.9609 22.7442 64.7334 22.7442L44.5667 22.7442L41.5417 22.7445C40.9848 22.7445 40.5334 23.1773 40.5334 23.7111C40.5334 24.245 40.9848 24.6778 41.5417 24.6778L48.6 24.6778C50.0928 24.6778 51.3962 25.4553 52.0936 26.6109C52.4369 27.1797 52.6334 27.8401 52.6334 28.5445C52.6334 29.5033 52.2694 30.3805 51.6666 31.0562C50.928 31.8842 49.8309 32.4095 48.6057 32.4111H41.5417C40.9848 32.4111 40.5334 32.8439 40.5334 33.3778C40.5334 33.9117 40.9848 34.3445 41.5417 34.3445L48.6 34.3445ZM54.8975 33.3778C56.0045 34.7018 56.6667 36.3823 56.6667 38.2111C56.6667 41.2705 54.8136 43.915 52.1247 45.1691C52.4536 46.0121 52.6334 46.9248 52.6334 47.8778C52.6334 52.1488 49.0218 55.6111 44.5667 55.6111H36.4777L36.443 55.6109H20.3667C11.4565 55.6109 4.23338 48.6862 4.23338 40.1442V26.6109C4.23338 24.3899 4.72409 22.27 5.60975 20.3527C6.00491 17.2015 7.91917 14.2576 11.0472 12.5935L31.1353 1.90621C35.0308 -0.166244 39.9412 1.1811 42.1029 4.91558C43.2502 6.89753 43.3928 9.15352 42.6916 11.1442L64.7334 11.1442C69.1885 11.1442 72.8 14.6066 72.8 18.8776C72.8 23.1486 69.1885 26.6109 64.7334 26.6109H56.4125C56.5785 27.2289 56.6667 27.8768 56.6667 28.5445C56.6667 30.3733 56.0045 32.0539 54.8975 33.3778Z" fill="white"/>
</g>
<defs>
<filter id="filter0_d_24_3" x="0.233398" y="0.93335" width="76.5667" height="62.6778" filterUnits="userSpaceOnUse" color-interpolation-filters="sRGB">
<feFlood flood-opacity="0" result="BackgroundImageFix"/>
<feColorMatrix in="SourceAlpha" type="matrix" values="0 0 0 0 0 0 0 0 0 0 0 0 0 0 0 0 0 0 127 0" result="hardAlpha"/>
<feOffset dy="4"/>
<feGaussianBlur stdDeviation="2"/>
<feComposite in2="hardAlpha" operator="out"/>
<feColorMatrix type="matrix" values="0 0 0 0 0 0 0 0 0 0 0 0 0 0 0 0 0 0 0.25 0"/>
<feBlend mode="normal" in2="BackgroundImageFix" result="effect1_dropShadow_24_3"/>
<feBlend mode="normal" in="SourceGraphic" in2="effect1_dropShadow_24_3" result="shape"/>
</filter>
</defs>
</svg>
