<svg width="31" height="35" viewBox="0 0 31 35" fill="none" xmlns="http://www.w3.org/2000/svg">
<path d="M16.0166 32.3118L16.9016 34.1053L16.9016 34.1053L16.0166 32.3118ZM15.226 32.3118L14.341 34.1053L14.341 34.1053L15.226 32.3118ZM26.8171 15.625C26.8171 19.791 24.5808 23.2046 21.8566 25.8153C19.1404 28.4184 16.1439 30.0187 15.1315 30.5182L16.9016 34.1053C18.0857 33.521 21.4894 31.7077 24.6243 28.7033C27.7512 25.7065 30.8171 21.3187 30.8171 15.625H26.8171ZM15.6213 4.5C21.8147 4.5 26.8171 9.49096 26.8171 15.625H30.8171C30.8171 7.26157 24.0035 0.5 15.6213 0.5V4.5ZM4.42554 15.625C4.42554 9.49096 9.4279 4.5 15.6213 4.5V0.5C7.23906 0.5 0.425537 7.26157 0.425537 15.625H4.42554ZM16.111 30.5182C15.0987 30.0187 12.1022 28.4185 9.38596 25.8153C6.66175 23.2046 4.42554 19.791 4.42554 15.625H0.425537C0.425537 21.3187 3.49136 25.7065 6.61829 28.7033C9.75323 31.7077 13.1569 33.521 14.341 34.1053L16.111 30.5182ZM15.1315 30.5182C15.4353 30.3684 15.8073 30.3684 16.111 30.5182L14.341 34.1053C15.1531 34.506 16.0895 34.506 16.9016 34.1053L15.1315 30.5182ZM19.2766 15.625C19.2766 17.6169 17.6502 19.25 15.6213 19.25V23.25C19.8391 23.25 23.2766 19.8463 23.2766 15.625H19.2766ZM15.6213 12C17.6502 12 19.2766 13.6331 19.2766 15.625H23.2766C23.2766 11.4037 19.8391 8 15.6213 8V12ZM11.966 15.625C11.966 13.6331 13.5924 12 15.6213 12V8C11.4035 8 7.96597 11.4037 7.96597 15.625H11.966ZM15.6213 19.25C13.5924 19.25 11.966 17.6169 11.966 15.625H7.96597C7.96597 19.8463 11.4035 23.25 15.6213 23.25V19.25Z" fill="#E5E5E5"/>
</svg>
