<svg width="223" height="216" viewBox="0 0 223 216" fill="none" xmlns="http://www.w3.org/2000/svg">
<path d="M32.898 199.344C76.3088 220.888 146.692 220.889 190.103 199.344C233.513 177.799 233.513 142.869 190.103 121.325C146.692 99.7804 76.3081 99.7804 32.8974 121.324C-10.5134 142.868 -10.5134 177.799 32.898 199.344Z" fill="#F5F5F5"/>
<path d="M179.718 181.318C185.371 184.124 194.537 184.124 200.19 181.318C205.844 178.513 205.844 173.964 200.19 171.158C194.537 168.352 185.371 168.352 179.718 171.158C174.064 173.964 174.064 178.513 179.718 181.318Z" fill="#ECECEC"/>
<path d="M29.5713 177.269L34.6894 174.192C34.6894 174.192 38.9117 170.961 41.0026 164.961C42.5846 160.421 42.3666 156.968 41.232 155.237C39.8365 153.107 36.226 153.479 36.0823 157.97C35.8001 166.814 33.3223 172.931 29.5713 177.269Z" fill="#73AB6B"/>
<g opacity="0.199997">
<path d="M29.5713 177.269L34.6894 174.192C34.6894 174.192 38.9117 170.961 41.0026 164.961C42.5846 160.421 42.3666 156.968 41.232 155.237C39.8365 153.107 36.226 153.479 36.0823 157.97C35.8001 166.814 33.3223 172.931 29.5713 177.269Z" fill="black"/>
</g>
<path d="M29.5715 177.597C29.4714 177.597 29.3737 177.548 29.312 177.455C29.2131 177.307 29.249 177.102 29.392 176.999C41.2341 168.467 38.9403 156.579 38.9157 156.46C38.8785 156.283 38.9869 156.108 39.157 156.071C39.3283 156.031 39.4947 156.145 39.5312 156.321C39.557 156.445 41.9498 168.749 29.7505 177.538C29.6956 177.579 29.6333 177.597 29.5715 177.597Z" fill="white"/>
<path d="M19.3349 183.423C19.3349 183.423 17.5533 181.912 17.9842 179.867C18.4158 177.822 19.5649 176.352 17.5892 173.713C15.6135 171.075 15.1032 167.559 17.4267 165.653C19.2228 164.179 22.0257 166.268 23.0375 162.362C23.7758 159.516 23.5238 153.212 27.0121 151.115C30.4998 149.018 32.6657 152.175 32.1302 156.451C31.6508 160.276 30.9767 163.959 31.4965 164.961C32.5139 166.922 34.2628 166.658 34.1834 170.252C34.1091 173.598 31.0706 176.367 31.0706 176.367L19.3349 183.423Z" fill="#73AB6B"/>
<path d="M25.1889 180.231C25.0314 180.231 24.8959 180.108 24.8764 179.942C23.9749 172.17 26.1232 158.749 27.9004 154.76C27.9735 154.595 28.1593 154.522 28.3187 154.601C28.4768 154.677 28.5455 154.871 28.4718 155.035C26.7261 158.955 24.6395 172.434 25.502 179.864C25.5228 180.043 25.3993 180.207 25.2273 180.228C25.2141 180.23 25.2015 180.231 25.1889 180.231Z" fill="white"/>
<path d="M25.0184 174.18C24.9718 174.18 24.9252 174.169 24.8804 174.146C22.6943 173.034 21.309 169.081 21.251 168.913C21.1918 168.743 21.2768 168.555 21.4406 168.494C21.6044 168.433 21.7846 168.52 21.8438 168.692C21.8571 168.73 23.2009 172.561 25.157 173.557C25.3133 173.637 25.3781 173.833 25.3019 173.996C25.2471 174.112 25.135 174.18 25.0184 174.18Z" fill="white"/>
<path d="M24.9828 176.799C24.8581 176.799 24.7396 176.721 24.6905 176.593C24.6256 176.425 24.7043 176.234 24.8656 176.167C28.5442 174.632 30.8374 170.067 30.8601 170.022C30.9401 169.861 31.1297 169.797 31.284 169.88C31.439 169.963 31.4995 170.161 31.4201 170.323C31.3225 170.519 28.9946 175.151 25.1 176.776C25.0615 176.791 25.0219 176.799 24.9828 176.799Z" fill="white"/>
<path d="M157.359 139.557C157.353 139.557 157.348 139.557 157.343 139.557C157.168 139.547 157.035 139.393 157.045 139.212C157.738 125.779 164.034 116.476 164.098 116.384C164.199 116.236 164.396 116.202 164.537 116.309C164.678 116.414 164.711 116.618 164.61 116.766C164.547 116.857 158.357 126.013 157.673 139.246C157.665 139.421 157.526 139.557 157.359 139.557Z" fill="white"/>
<path d="M157.719 135.685C157.667 135.685 157.615 135.671 157.567 135.644C155.802 134.627 154.825 131.61 154.784 131.482C154.73 131.31 154.819 131.125 154.984 131.068C155.149 131.009 155.328 131.104 155.382 131.276C155.392 131.304 156.323 134.178 157.871 135.07C158.023 135.157 158.079 135.357 157.994 135.515C157.938 135.624 157.83 135.685 157.719 135.685Z" fill="white"/>
<path d="M158.028 133.696C157.887 133.696 157.758 133.598 157.723 133.449C157.679 133.272 157.781 133.095 157.95 133.051C162.498 131.853 164.073 129.371 164.088 129.347C164.182 129.195 164.377 129.151 164.523 129.247C164.669 129.344 164.713 129.546 164.62 129.698C164.552 129.809 162.916 132.42 158.105 133.686C158.079 133.693 158.053 133.696 158.028 133.696Z" fill="white"/>
<path d="M85.0541 131.311C85.0541 131.311 79.013 129.777 78.6986 117.999C78.3591 105.285 80.1785 90.4528 73.0538 89.2464C65.9292 88.04 61.9312 97.1374 62.0225 107.708C62.1025 116.99 65.6923 137.129 85.0534 141.076L85.0541 131.311Z" fill="#73AB6B"/>
<path d="M85.0537 139.865C85.0348 139.865 85.0159 139.863 84.997 139.86C80.6406 139.034 77.0949 136.539 74.4584 132.443C66.6306 120.284 69.0971 97.5901 69.9066 93.6252C69.9432 93.4481 70.1095 93.3359 70.2802 93.3726C70.4503 93.4107 70.5593 93.5845 70.5234 93.7617C69.7227 97.6819 67.277 120.11 74.9813 132.078C77.5196 136.021 80.9272 138.421 85.1098 139.215C85.2812 139.247 85.3946 139.418 85.3631 139.596C85.3353 139.754 85.203 139.865 85.0537 139.865Z" fill="white"/>
<path d="M85.0543 170.103C78.8079 170.985 68.6624 170.969 62.8185 166.17C56.9746 161.37 58.1899 157.234 60.4383 155.509C62.6862 153.783 64.6385 151.811 60.7716 147.982C56.904 144.153 50.6878 138 48.6775 128.768C46.6672 119.538 47.6575 113.769 51.6127 111.845C55.4519 109.979 56.4624 112.944 58.8123 119.058C61.1616 125.174 66.4492 119.931 70.97 121.84C75.4903 123.749 75.3133 127.528 75.598 130.776C75.8828 134.024 77.3759 134.922 79.9356 134.922C82.4953 134.922 85.0531 136.46 85.0537 139.537L85.0543 170.103Z" fill="#73AB6B"/>
<path d="M85.0543 159.386C85.0266 159.386 84.9976 159.382 84.9693 159.374C84.699 159.295 78.2396 157.338 68.8375 148.345C58.8217 138.764 54.093 124.401 54.0463 124.258C53.9909 124.086 54.0791 123.899 54.2442 123.842C54.4092 123.785 54.5881 123.876 54.6436 124.048C54.6896 124.191 59.3698 138.398 69.264 147.862C78.5401 156.734 85.0745 158.723 85.1394 158.743C85.3069 158.792 85.4046 158.972 85.3573 159.148C85.3183 159.291 85.1923 159.386 85.0543 159.386Z" fill="white"/>
<path d="M71.4532 150.635C71.3272 150.635 71.2081 150.555 71.1596 150.426C69.1379 145.016 68.6799 133.452 68.6616 132.962C68.6547 132.781 68.7902 132.629 68.964 132.621C69.1253 132.623 69.2841 132.755 69.291 132.937C69.2954 133.055 69.7635 144.881 71.7467 150.187C71.8097 150.357 71.7291 150.547 71.5672 150.613C71.53 150.628 71.4916 150.635 71.4532 150.635Z" fill="white"/>
<path d="M71.4003 158.415C70.4213 158.415 69.744 158.335 69.6621 158.325C69.4895 158.304 69.366 158.14 69.3868 157.961C69.407 157.781 69.5626 157.648 69.7365 157.674C69.795 157.68 75.6566 158.37 78.3492 155.511C78.4701 155.381 78.6705 155.381 78.7946 155.506C78.9187 155.633 78.9206 155.841 78.799 155.97C76.8284 158.062 73.4528 158.415 71.4003 158.415Z" fill="white"/>
<path d="M55.4397 47.6768C52.5706 50.0253 51.6968 50.5376 51.1777 47.4C50.6586 44.2623 52.3369 39.4775 55.2059 37.129C58.0756 34.7799 59.1762 34.6047 59.6953 37.7424C60.2144 40.88 58.3087 45.3277 55.4397 47.6768ZM66.8634 34.196L66.1868 30.1059L62.6821 32.5075C62.3306 31.8088 61.8795 31.2473 61.3491 30.8229L63.0261 26.099L59.9038 25.3722L57.5968 29.9491C56.832 30.0717 56.0256 30.3401 55.1933 30.7638L54.1948 27.3139L50.4551 30.3755L50.7002 34.4427C49.9429 35.3191 49.2505 36.2788 48.6325 37.2877L45.5424 37.129L43.3764 42.1854L46.0293 43.3643C45.7496 44.4519 45.5694 45.531 45.5052 46.5688L42.1372 49.7944L42.8132 53.8845L46.3179 51.4829C46.6694 52.1822 47.1205 52.7438 47.651 53.1675L45.9739 57.8914L49.0968 58.6189L52.3968 55.268C53.1616 55.146 52.9751 53.6504 53.8067 53.2266L54.8052 56.6765L58.5449 53.6149L58.4485 52.0156C59.2058 51.1385 62.0641 49.204 62.6821 48.1951L63.4577 46.8614L65.6242 41.805L64.6143 39.9006L63.4948 37.4216L66.8634 34.196Z" fill="#E1E1E1"/>
<path d="M59.904 25.3719L63.9895 27.8254L61.6825 32.4023L57.5969 29.9495L59.904 25.3719Z" fill="#F5F5F5"/>
<path d="M70.2724 32.5594L66.7677 34.961L62.6821 32.5075L66.1868 30.1059L70.2724 32.5594Z" fill="#F5F5F5"/>
<path d="M69.7098 44.2581L67.0563 43.08L62.9707 40.6265L65.6243 41.8047L69.7098 44.2581Z" fill="#E1E1E1"/>
<path d="M45.9736 57.8916L50.0592 60.345L51.7362 55.6212L47.6513 53.1677L45.9736 57.8916Z" fill="#E1E1E1"/>
<path d="M58.891 59.1299L54.8054 56.6765L53.8069 53.2266L57.8924 55.68L58.891 59.1299Z" fill="#E1E1E1"/>
<path d="M59.5255 50.1301C56.6565 52.4793 53.9097 51.839 53.3906 48.7014C52.8714 45.5637 54.7772 41.116 57.6462 38.7676C60.5152 36.4184 63.262 37.058 63.7805 40.1957C64.2996 43.3333 62.3945 47.781 59.5255 50.1301ZM70.9487 36.6493L70.2727 32.5592L66.768 34.9608C66.4164 34.2621 65.9653 33.7006 65.4349 33.2762L67.1119 28.5523L63.989 27.8255L61.6826 32.4024C60.9178 32.5251 60.1108 32.7934 59.2792 33.2171L58.2806 29.7672L54.5409 32.8288L54.786 36.896C54.0287 37.7724 53.3364 38.7321 52.7183 39.7411L49.6282 39.5823L47.4623 44.6388L50.1152 45.8176C49.8348 46.9052 49.6553 47.9844 49.591 49.0228L46.2224 52.2477L46.899 56.3379L50.4037 53.9362C50.7553 54.6355 51.2063 55.1971 51.7368 55.6215L50.0597 60.3447L53.182 61.0722L55.4891 56.4946C56.2539 56.3726 57.0603 56.1037 57.8925 55.6799L58.8911 59.1298L62.6308 56.0682L62.3857 52.0017C63.143 51.1246 63.8353 50.1655 64.4534 49.156L67.5435 49.3147L69.7101 44.2583L67.0565 43.0794C67.3369 41.9918 67.517 40.9133 67.58 39.8749L70.9487 36.6493Z" fill="#ECECEC"/>
<path d="M58.2808 29.7672L54.1952 27.3138L50.4556 30.3753L54.5405 32.8288L58.2808 29.7672Z" fill="#F5F5F5"/>
<path d="M50.4553 30.3755L50.7004 34.4427L54.7859 36.8954L54.5409 32.8289L50.4553 30.3755Z" fill="#E1E1E1"/>
<path d="M52.7182 39.7411L48.6326 37.2877L45.5425 37.1289L49.628 39.5824L52.7182 39.7411Z" fill="#F5F5F5"/>
<path d="M45.5424 37.1289L43.3765 42.1854L47.462 44.6388L49.628 39.5824L45.5424 37.1289Z" fill="#E1E1E1"/>
<path d="M49.5914 49.0225L45.5058 46.569L42.1372 49.7946L46.2228 52.248L49.5914 49.0225Z" fill="#F5F5F5"/>
<path d="M46.8991 56.3378L42.8136 53.8844L42.137 49.7942L46.2225 52.2476L46.8991 56.3378Z" fill="#E1E1E1"/>
<path d="M63.9894 27.8252L59.9038 25.3717L63.0267 26.0992L67.1123 28.552L63.9894 27.8252Z" fill="#F5F5F5"/>
<path d="M32.222 30.8973C28.3242 33.2405 25.9012 31.5782 25.9012 26.8917C25.9012 22.2053 29.1224 16.4639 33.0209 14.1207C36.9187 11.7775 39.2799 13.4818 39.2799 18.1682C39.2799 22.8554 36.1198 28.554 32.222 30.8973ZM48.5586 15.6453V9.53593L43.8896 11.7276C43.608 10.5993 43.179 9.63171 42.6284 8.83401L45.5698 2.65777L41.9769 0.498222L38.3116 6.23888C37.3723 6.14113 36.3536 6.23822 35.2744 6.54851L34.7622 1.24212L29.6819 4.29646L29.1697 10.2182C28.0905 11.2055 27.0718 12.3338 26.1324 13.5605L22.4671 12.2275L18.8742 18.7068L21.8157 21.3459C21.2651 22.8062 20.836 24.2894 20.5544 25.7562L15.8855 29.1779V35.2866L20.5544 33.0955C20.836 34.2232 21.2651 35.1908 21.8157 35.9885L18.8742 42.1647L22.4671 44.3249L26.1324 38.5836C27.0718 38.6814 28.0905 38.5849 29.1697 38.2746L29.6819 43.5804L34.7622 40.526L35.2744 34.6043C36.7883 34.0789 38.408 32.858 39.3473 31.6313L41.9769 32.5956L45.5698 26.1163L43.3655 24.1385C43.9161 22.6782 43.9747 20.3435 43.8896 19.067L48.5586 15.6453Z" fill="#E1E1E1"/>
<path d="M46.063 2.95127L41.9775 0.497829L38.3115 6.23914L42.3971 8.69193L46.063 2.95127Z" fill="#F5F5F5"/>
<path d="M52.6441 11.9892L48.5586 9.5358L43.8896 11.7275L47.9752 14.1809L52.6441 11.9892Z" fill="#F5F5F5"/>
<path d="M33.7674 46.034L29.6819 43.5806L29.1697 38.2742L33.2559 40.7276L33.7674 46.034Z" fill="#E1E1E1"/>
<path d="M18.8743 42.1649L22.9598 44.6183L25.9013 38.4421L21.8157 35.9887L18.8743 42.1649Z" fill="#E1E1E1"/>
<path d="M36.3077 33.3506C32.4099 35.6938 29.2498 33.794 29.2498 29.1076C29.2498 24.4211 32.4099 18.7224 36.3077 16.3785C40.2055 14.036 43.3656 15.9351 43.3656 20.6215C43.3656 25.3087 40.2055 31.0073 36.3077 33.3506ZM52.6442 18.0986V11.9892L47.9753 14.1809C47.6937 13.0526 47.2647 12.085 46.7141 11.2873L49.6555 5.11108L46.0626 2.95153L42.3967 8.69218C41.458 8.59444 40.4393 8.69153 39.3601 9.00182L38.8479 3.69543L33.7676 6.74977L33.2554 12.6715C32.1762 13.6588 31.1575 14.7871 30.2181 16.0138L26.5522 14.6808L22.9599 21.1601L25.9014 23.7992C25.3508 25.2595 24.9217 26.7427 24.6401 28.2095L19.9712 31.6312V37.7399L24.6401 35.5488C24.9217 36.6765 25.3508 37.6441 25.9014 38.4424L22.9599 44.6187L26.5522 46.7782L30.2181 41.0376C31.1575 41.1347 32.1762 41.0382 33.2554 40.7279L33.7676 46.0337L38.8479 42.9793L39.3601 37.0576C40.4393 36.071 41.458 34.9427 42.3967 33.716L46.0626 35.049L49.6555 28.5696L46.7141 25.9299C47.2647 24.4696 47.6937 22.9871 47.9753 21.5203L52.6442 18.0986Z" fill="#ECECEC"/>
<path d="M26.1328 13.5604L30.2183 16.0138L26.5523 14.6808L22.4668 12.2274L26.1328 13.5604Z" fill="#F0F0F0"/>
<path d="M22.9598 21.1601L18.8743 18.7067L22.4672 12.2274L26.5527 14.6808L22.9598 21.1601Z" fill="#F5F5F5"/>
<path d="M18.8743 18.7065L22.9598 21.1599L25.9013 23.7997L21.8157 21.3456L18.8743 18.7065Z" fill="#E1E1E1"/>
<path d="M20.5547 25.7559L24.6402 28.2094L19.9713 31.6317L15.8857 29.1783L20.5547 25.7559Z" fill="#F5F5F5"/>
<path d="M15.8857 29.1781L19.9713 31.6316V37.7402L15.8857 35.2868V29.1781Z" fill="#E1E1E1"/>
<path d="M38.8481 3.69569L34.7626 1.24226L29.6816 4.29659L33.7678 6.75003L38.8481 3.69569Z" fill="#F5F5F5"/>
<path d="M99.1294 178.384L158.365 142.773C158.967 142.41 158.968 141.823 158.366 141.46L152.886 138.159C152.284 137.795 151.307 137.795 150.704 138.157L91.4522 173.768C90.8493 174.131 90.8493 174.718 91.4522 175.08L96.947 178.384C97.55 178.746 98.5265 178.746 99.1294 178.384Z" fill="#E1E1E1"/>
<path d="M156.727 5.29468L103.324 37.3993C101.818 38.3052 100.596 40.5081 100.596 42.3193V174.221C100.596 176.032 101.818 176.767 103.324 175.861L156.728 143.757C158.235 142.851 159.456 140.648 159.456 138.837L159.455 6.93468C159.455 5.12346 158.234 4.38873 156.727 5.29468Z" fill="#375A64"/>
<path d="M103.324 37.3992L156.727 5.29461C158.074 4.48511 159.191 4.98891 159.413 6.39931C159.208 4.7088 158.089 2.8333 156.727 2.01461L154.506 0.678993C153 -0.226284 150.557 -0.226284 149.05 0.678993L95.6471 32.7836C94.8936 33.2369 94.2119 34.0136 93.718 34.9045L101.395 39.5194C101.889 38.6292 102.571 37.8519 103.324 37.3992Z" fill="#2B454E"/>
<path d="M92.9201 169.605C92.9201 171.417 94.141 173.62 95.648 174.525L97.8693 175.861C99.2314 176.68 101.353 176.751 102.861 176.089C101.576 176.597 100.597 175.843 100.597 174.221V42.3191C100.597 41.4132 100.902 40.4101 101.395 39.5193L93.7183 34.9043C93.2244 35.7945 92.9194 36.7982 92.9194 37.7041L92.9201 169.605Z" fill="#1A2E35"/>
<path d="M104.793 54.9784L155.259 24.6384C156.164 24.0952 156.897 24.536 156.897 25.6224L156.897 123.225C156.897 124.312 156.164 125.634 155.26 126.177L104.793 156.517C103.889 157.06 103.156 156.62 103.156 155.533V57.9304C103.156 56.8434 103.888 55.5222 104.793 54.9784Z" fill="white"/>
<path d="M130.026 26.3507C129.496 26.6695 129.067 27.4443 129.067 28.0813C129.067 28.7189 129.496 28.9767 130.026 28.6585C130.557 28.3397 130.986 27.565 130.986 26.9273C130.986 26.2904 130.557 26.0319 130.026 26.3507Z" fill="#2B454E"/>
<path d="M130.027 146.034C127.935 147.292 126.238 150.352 126.238 152.868C126.238 155.384 127.935 156.404 130.027 155.146C132.12 153.889 133.816 150.829 133.816 148.313C133.816 145.797 132.12 144.777 130.027 146.034Z" fill="#2B454E"/>
<path d="M120.962 36.5037C119.902 37.1413 119.043 38.6908 119.043 39.9654C119.043 41.24 119.902 41.7563 120.963 41.1193C122.023 40.4817 122.882 38.9322 122.882 37.6576C122.882 36.383 122.022 35.8667 120.962 36.5037Z" fill="#2B454E"/>
<path d="M125.655 36.0716C125.655 36.9211 126.266 37.2432 127.019 36.7899L139.646 29.1993C140.399 28.746 141.01 27.6905 141.01 26.841C141.009 25.9908 140.399 25.6694 139.645 26.122L127.019 33.7133C126.266 34.1659 125.655 35.2221 125.655 36.0716Z" fill="#2B454E"/>
<path d="M97.1668 59.202C98.0148 59.7117 98.7021 60.9516 98.7021 61.9716C98.7021 62.9911 98.0148 63.4043 97.1668 62.894C96.3188 62.3849 95.6309 61.1444 95.6309 60.125C95.6309 59.1056 96.3188 58.6923 97.1668 59.202Z" fill="#2B454E"/>
<path d="M97.1668 71.5193C98.0148 72.029 98.7021 73.2688 98.7021 74.2889C98.7021 75.3083 98.0148 75.7216 97.1668 75.2119C96.3188 74.7022 95.6309 73.4623 95.6309 72.4423C95.6309 71.4228 96.3188 71.0096 97.1668 71.5193Z" fill="#2B454E"/>
<path d="M96.6925 59.4489C97.5405 59.9586 98.2285 61.1985 98.2285 62.2179C98.2285 63.2373 97.5405 63.6513 96.6925 63.1409C95.8446 62.6312 95.1572 61.3914 95.1572 60.3719C95.1572 59.3525 95.8446 58.9392 96.6925 59.4489Z" fill="#375A64"/>
<path d="M96.6925 71.7663C97.5405 72.276 98.2285 73.5158 98.2285 74.5359C98.2285 75.5553 97.5405 75.9686 96.6925 75.4589C95.8446 74.9492 95.1572 73.7087 95.1572 72.6892C95.1572 71.6698 95.8446 71.2565 96.6925 71.7663Z" fill="#375A64"/>
<path d="M167.133 28.7089C167.133 27.6219 166.401 27.1817 165.496 27.7249L159.456 31.3565L115.029 58.0649C114.125 58.6081 113.393 59.9299 113.393 61.0169L113.393 158.619C113.393 159.706 114.126 160.146 115.03 159.603L159.472 132.886L165.497 129.264C166.401 128.72 167.134 127.398 167.134 126.312L167.133 28.7089Z" fill="white"/>
<path d="M167.133 28.7089C167.133 27.6219 166.401 27.1817 165.496 27.7249L159.456 31.3565L115.029 58.0649C114.125 58.6081 113.393 59.9299 113.393 61.0169L113.393 158.619C113.393 159.706 114.126 160.146 115.03 159.603L159.472 132.886L165.497 129.264C166.401 128.72 167.134 127.398 167.134 126.312L167.133 28.7089Z" stroke="#00DFBF" stroke-width="1.33333" stroke-miterlimit="10"/>
<path d="M114.298 160.165C114.088 160.165 113.891 160.113 113.715 160.007C113.304 159.76 113.078 159.267 113.078 158.62V61.0166C113.078 59.807 113.865 58.3854 114.872 57.7806L159.298 31.0722L159.613 31.6403L115.187 58.3487C114.385 58.8309 113.708 60.0523 113.708 61.0166V158.62C113.708 159.017 113.826 159.316 114.03 159.439C114.235 159.562 114.541 159.518 114.872 159.32L159.314 132.601L159.629 133.169L115.187 159.887C114.88 160.072 114.577 160.165 114.298 160.165Z" fill="#00DFBF"/>
<path d="M114.298 160.165C114.088 160.165 113.891 160.113 113.715 160.007C113.304 159.76 113.078 159.267 113.078 158.62V61.0166C113.078 59.807 113.865 58.3854 114.872 57.7806L159.298 31.0722L159.613 31.6403L115.187 58.3487C114.385 58.8309 113.708 60.0523 113.708 61.0166V158.62C113.708 159.017 113.826 159.316 114.03 159.439C114.235 159.562 114.541 159.518 114.872 159.32L159.314 132.601L159.629 133.169L115.187 159.887C114.88 160.072 114.577 160.165 114.298 160.165Z" stroke="#73AB6B" stroke-width="1.33333" stroke-miterlimit="10"/>
<path d="M159.629 133.169L159.314 132.602L165.339 128.98C166.142 128.497 166.819 127.276 166.819 126.312L166.818 28.7091C166.818 28.3115 166.701 28.0131 166.496 27.8897C166.293 27.7671 165.985 27.8097 165.654 28.0091L159.614 31.6401L159.299 31.072L165.339 27.441C165.877 27.1176 166.4 27.0743 166.811 27.3216C167.222 27.5683 167.448 28.061 167.448 28.7091L167.449 126.312C167.449 127.521 166.661 128.943 165.654 129.547L159.629 133.169Z" fill="#00DFBF"/>
<path d="M159.629 133.169L159.314 132.602L165.339 128.98C166.142 128.497 166.819 127.276 166.819 126.312L166.818 28.7091C166.818 28.3115 166.701 28.0131 166.496 27.8897C166.293 27.7671 165.985 27.8097 165.654 28.0091L159.614 31.6401L159.299 31.072L165.339 27.441C165.877 27.1176 166.4 27.0743 166.811 27.3217C167.222 27.5683 167.448 28.061 167.448 28.7091L167.449 126.312C167.449 127.521 166.661 128.943 165.654 129.547L159.629 133.169Z" stroke="#73AB6B" stroke-width="1.33333" stroke-miterlimit="10"/>
<path d="M140.263 51.3905C145.917 47.9918 150.499 50.747 150.499 57.5445C150.499 64.3419 145.917 72.6069 140.263 76.0056C134.609 79.405 130.027 76.6492 130.027 69.8523C130.027 63.0549 134.609 54.7893 140.263 51.3905Z" fill="#73AB6B"/>
<path d="M140.263 56.7401C142.097 55.6373 143.584 56.5314 143.584 58.7363C143.584 60.9417 142.097 63.6235 140.263 64.7255C138.429 65.8283 136.942 64.9348 136.942 62.7293C136.942 60.5239 138.429 57.8428 140.263 56.7401Z" fill="#00DFBF"/>
<path d="M146.736 68.4987C146.736 64.8756 144.293 63.4068 141.28 65.2187L139.396 66.351C136.383 68.1622 133.94 72.5679 133.94 76.191V77.1658C135.682 77.768 137.875 77.442 140.263 76.006C142.719 74.5293 144.972 72.133 146.736 69.3391V68.4987Z" fill="#00DFBF"/>
<g opacity="0.699997">
<path d="M140.263 56.7401C142.097 55.6373 143.584 56.5314 143.584 58.7363C143.584 60.9417 142.097 63.6235 140.263 64.7255C138.429 65.8283 136.942 64.9348 136.942 62.7293C136.942 60.5239 138.429 57.8428 140.263 56.7401Z" fill="white"/>
</g>
<g opacity="0.699997">
<path d="M146.736 68.4987C146.736 64.8756 144.293 63.4068 141.28 65.2187L139.396 66.351C136.383 68.1622 133.94 72.5679 133.94 76.191V77.1658C135.682 77.768 137.875 77.442 140.263 76.006C142.719 74.5293 144.972 72.133 146.736 69.3391V68.4987Z" fill="white"/>
</g>
<path d="M120.457 90.9962L133.629 83.0776C134.232 82.7149 134.72 83.0088 134.72 83.7336V84.1863C134.72 84.9112 134.232 85.7922 133.629 86.1543L120.457 94.0729C119.854 94.4356 119.365 94.1417 119.365 93.4169V92.9642C119.365 92.24 119.854 91.3583 120.457 90.9962Z" fill="#B7FFAD"/>
<path d="M119.911 100.555L159.765 76.5959C160.067 76.4148 160.311 76.5611 160.311 76.9239V81.7658C160.311 82.128 160.067 82.5688 159.765 82.7498L119.911 106.709C119.61 106.89 119.366 106.744 119.366 106.381V101.539C119.366 101.177 119.61 100.736 119.911 100.555Z" fill="#73AB6B"/>
<path d="M120.457 112.535L133.629 104.616C134.232 104.253 134.72 104.547 134.72 105.272V105.725C134.72 106.45 134.232 107.331 133.629 107.693L120.457 115.611C119.854 115.974 119.365 115.68 119.365 114.955V114.503C119.365 113.778 119.854 112.897 120.457 112.535Z" fill="#B7FFAD"/>
<path d="M119.911 122.093L159.765 98.1344C160.067 97.9533 160.311 98.0996 160.311 98.4624V103.304C160.311 103.666 160.067 104.107 159.765 104.288L119.911 128.247C119.61 128.428 119.366 128.282 119.366 127.919V123.077C119.366 122.715 119.61 122.274 119.911 122.093Z" fill="#73AB6B"/>
<path d="M135.812 124.842L151.543 115.385C152.146 115.023 152.634 115.317 152.634 116.041V121.11C152.634 121.834 152.146 122.716 151.543 123.078L135.812 132.535C135.209 132.897 134.721 132.603 134.721 131.879V126.81C134.721 126.086 135.209 125.205 135.812 124.842Z" fill="#B7FFAD"/>
<path d="M165.241 103.969C165.241 103.969 157.501 92.8513 157.029 91.5288C156.673 90.5317 157.054 89.0478 157.142 88.359C157.23 87.6696 157.358 86.1352 157.468 85.7081C157.661 84.9629 156.733 85.1151 156.213 85.7928C155.68 86.4875 155.509 87.8421 155.244 88.0651C154.979 88.2875 152.911 85.1597 151.832 83.7119C150.753 82.2635 150.078 81.3917 149.423 81.9283C148.95 82.3147 149.302 83.1583 150.083 84.3909C150.866 85.6235 151.212 86.1949 151.33 86.4599C151.448 86.7243 150.805 86.7459 150.458 87.3022C150.187 87.7365 150.439 88.4391 150.081 88.7743C149.721 89.1095 149.387 89.7124 149.78 90.392C150.282 91.2572 151.288 92.4938 152.445 93.3289C153.602 94.164 154.071 94.4572 154.754 95.5934C155.436 96.7289 161.603 108.322 162.017 109.017C162.43 109.713 163.234 111.13 164.451 111.171C165.668 111.211 175.619 102.289 176.132 101.843C177.773 100.419 178.29 100.21 178.573 101.493C178.661 101.894 178.719 102.352 178.781 102.87C178.978 104.494 180.041 110.307 180.041 110.307C180.041 110.307 185.074 112.847 189.219 111.595C193.364 110.344 194.754 108.54 194.754 108.54L192.68 105.022C193.245 103.569 195.852 97.6952 196.67 93.5795L183.692 91.3976C183.426 91.3373 183 91.2258 182.457 91.0768C181.745 90.8814 179.954 90.2267 178.572 91.477C174.106 95.5219 165.241 103.969 165.241 103.969Z" fill="#FFAAA8"/>
<path d="M190.97 172.152L188.644 175.518C188.644 175.518 189.722 176.176 192.023 176.267C194.105 176.349 194.677 175.638 194.754 175.467C195.105 174.682 194.557 173.265 194.406 172.049L190.97 172.152Z" fill="#2B454E"/>
<path d="M188.774 173.902C188.774 173.902 185.955 173.715 184.006 173.459C182.056 173.203 180.514 174.194 180.973 175.03C181.431 175.865 182.503 176.561 184.174 177.145C185.606 177.647 187.32 178.012 188.815 178.477C190.346 178.954 191.327 179.501 192.195 179.19C193.162 178.843 193.577 178.441 193.494 177.707C193.413 176.974 192.711 174.612 192.711 174.612L188.774 173.902Z" fill="#2B454E"/>
<path d="M194.754 168.769C194.754 168.769 194.401 171.827 194.374 172.483C194.347 173.139 191.509 173.35 190.97 172.151L190.882 168.413L194.754 168.769Z" fill="#FF9090"/>
<path d="M191.891 170.651L192.907 175.289C192.907 175.289 193.003 175.855 190.682 176.215C188.361 176.576 184.723 174.951 184.103 174.621C183.483 174.291 183.41 173.634 185.688 173.765C187.967 173.897 188.775 173.902 188.775 173.902L188.035 171.845L191.891 170.651Z" fill="#FFAAA8"/>
<path d="M196.67 93.5792L198.274 93.1181C198.274 93.1181 201.635 104.183 202.007 105.248C202.378 106.314 202.797 107.45 202.074 108.769C201.213 110.338 196.67 116.656 196.67 116.656L193.786 113.718L197.057 107.477L194.164 101.372L196.67 93.5792Z" fill="#FF9090"/>
<path d="M180.153 79.1969C180.153 79.1969 178.866 77.0531 180.221 74.4278C181.818 71.3354 185.387 69.8259 189.635 70.4045C191.598 70.6722 193.914 72.3495 195.185 74.9112C196.581 77.7241 196.711 83.394 197.057 85.5384L180.153 79.1969Z" fill="#2B454E"/>
<path d="M180.056 80.4077C180.056 80.4077 179.047 82.4085 179.222 82.5908C179.396 82.7725 180.069 82.9201 180.069 82.9201L180.056 80.4077Z" fill="#FFAAA8"/>
<path d="M183.119 74.0818C182.021 74.827 180.132 76.1889 180.049 80.6851C179.964 85.3014 180.59 86.7892 181.245 87.3238C181.688 87.6846 184.275 87.5022 185.386 87.23C186.497 86.9584 189.692 85.3151 190.842 82.8158C192.194 79.8762 191.921 75.5716 189.908 74.3219C187.076 72.5631 184.048 73.4514 183.119 74.0818Z" fill="#FFAAA8"/>
<path d="M194.753 108.54C196.696 111.688 198.543 114.461 198.937 117.999C199.769 125.471 197.039 134.013 196.46 139.538C196.46 139.538 198.293 142.02 198.291 144.936C198.29 147.219 194.754 168.769 194.754 168.769C194.754 168.769 192.182 169.585 190.882 168.413L188.451 128.768L189.732 123.942L194.753 108.54Z" fill="#73AB6B"/>
<path d="M188.452 128.768L189.732 123.942C189.732 123.942 193.281 123.049 196.67 121.076C196.67 121.076 195.356 123.56 191.595 124.922L189.635 131.127L189.467 145.325L188.452 128.768Z" fill="#73AB6B"/>
<path d="M194.753 108.54C195.793 110.307 198.278 113.328 197.75 116.231C197.109 119.748 195.291 122.221 189.732 123.942L184.517 143.606C184.517 143.606 187.232 146.252 188.063 148.769C188.892 151.285 191.891 170.65 191.891 170.65C191.891 170.65 190.964 172.227 188.035 171.845C188.035 171.845 177.823 147.557 177.101 145.993C176.38 144.429 175.913 143.26 176.236 140.713C176.561 138.167 180.04 110.307 180.04 110.307L194.753 108.54Z" fill="#73AB6B"/>
<path d="M196.67 93.5792L183.692 91.3973C183.427 91.337 182.998 91.2248 182.456 91.0766L182.455 91.0759C182.455 91.0759 181.901 99.5488 178.573 101.493C178.651 101.897 178.719 102.352 178.781 102.869C178.978 104.494 180.04 110.307 180.04 110.307C180.04 110.307 185.075 112.847 189.219 111.595C193.364 110.343 194.753 108.541 194.753 108.541L192.68 105.022C193.245 103.569 195.852 97.6956 196.67 93.5792Z" fill="#B7FFAD"/>
<path d="M193.246 103.638C193.193 103.766 189.074 106.064 187.851 106.415C189.78 106.316 191.383 105.844 192.68 105.022L193.246 103.638Z" fill="#B7FFAD"/>
<path d="M182.795 74.3082C182.795 74.3082 182.19 78.5742 183.655 81.0762C183.655 81.0762 184.205 79.3785 185.59 79.7025C186.985 80.0292 187.044 81.9152 186.076 82.9845C185.107 84.0538 184.029 83.6674 184.029 83.6674C184.029 83.6674 183.811 86.7506 183.694 89.3359C183.581 91.8267 182.914 97.5542 185.708 99.8575C188.502 102.161 195.503 102.938 198.785 98.161C200.611 95.5036 198.185 90.8053 197.058 85.5383C196.02 80.695 195.436 73.5171 190.501 72.3658C185.566 71.2145 182.795 74.3082 182.795 74.3082Z" fill="#2B454E"/>
<path d="M200.899 16.0453L199.859 16.6712C199.941 16.2723 200.001 15.8761 200.001 15.4956C200.001 13.3006 198.521 12.4111 196.696 13.5086C196.165 13.8281 195.671 14.2892 195.226 14.8239C195.226 14.8186 195.227 14.8134 195.227 14.8075C195.227 11.8535 193.235 10.6557 190.778 12.133C188.32 13.6103 186.328 17.2025 186.328 20.1572C186.328 20.308 186.337 20.4504 186.347 20.5914C185.828 20.495 185.208 20.6275 184.54 21.029C182.715 22.1265 181.235 24.7944 181.235 26.9894C181.235 27.2918 181.266 27.566 181.319 27.8166L180.764 28.1499C179.257 29.0558 178.036 30.8231 178.036 32.0977C178.036 33.3723 179.257 33.6708 180.764 32.7655L200.899 20.661C202.406 19.755 203.627 17.9871 203.627 16.7132C203.627 15.4385 202.406 15.1394 200.899 16.0453Z" fill="#ECECEC"/>
</svg>
