<svg width="77" height="64" viewBox="0 0 77 64" fill="none" xmlns="http://www.w3.org/2000/svg">
<g filter="url(#filter0_d_24_45)">
<path fill-rule="evenodd" clip-rule="evenodd" d="M28.4162 33.9267C28.4144 33.9267 28.4125 33.9267 28.4106 33.9267C28.4097 33.9267 28.4115 33.9267 28.4106 33.9267C27.1903 33.939 26.0994 34.4729 25.3707 35.3062C24.7757 35.9868 24.4205 36.8669 24.4288 37.8257C24.4442 39.589 25.6848 41.0666 27.367 41.518C27.7203 41.6128 28.0931 41.6624 28.4782 41.6598L35.5209 41.6029C36.0761 41.5984 36.5299 42.0276 36.5346 42.5614C36.5393 43.0953 36.093 43.5317 35.5378 43.5362L32.5219 43.5605C31.0335 43.5725 29.7407 44.3606 29.0555 45.5219C28.7183 46.0934 28.5283 46.7553 28.5344 47.4595C28.5531 49.595 30.3686 51.3115 32.5894 51.2936L40.6318 51.2287L40.6774 51.228L56.7165 51.0985C63.3791 51.0447 68.7348 45.8078 68.6788 39.4015L68.5606 25.8687C68.5441 23.9821 68.0602 22.2044 67.2153 20.6366C67.1226 18.4616 65.8777 16.3866 63.7444 15.2707L43.6234 4.74554C41.6725 3.72503 39.2306 4.41844 38.1692 6.29432C37.3526 7.73766 37.5913 9.46051 38.6334 10.6431C38.9457 10.9975 39.3301 11.3034 39.78 11.5387L45.3563 14.4556L12.1626 14.7237C9.9418 14.7416 8.15657 16.4872 8.17522 18.6227C8.19387 20.7581 10.0093 22.4747 12.2302 22.4567L32.3361 22.2944L35.352 22.2703C35.9072 22.2658 36.3611 22.6949 36.3658 23.2288C36.3704 23.7626 35.9241 24.199 35.3689 24.2035L28.3318 24.2603C26.8435 24.2724 25.5509 25.0603 24.8656 26.2215C24.5284 26.793 24.3383 27.455 24.3444 28.1593C24.3528 29.1181 24.7233 29.9924 25.3302 30.6632C26.0738 31.4853 27.1722 32.0017 28.3937 31.9934L35.4364 31.9366C35.9917 31.9321 36.4455 32.3612 36.4502 32.8951C36.4548 33.429 36.0085 33.8654 35.4533 33.8698L28.4162 33.9267ZM22.1294 33.0107C21.0372 34.3436 20.3917 36.0294 20.4076 37.8581C20.4344 40.9174 22.305 43.5469 24.9967 44.7793C24.6762 45.6249 24.5049 46.5391 24.5132 47.492C24.5505 51.7629 28.1815 55.196 32.6232 55.1601L40.6879 55.095L40.7224 55.0945L56.7503 54.9651C65.6337 54.8933 72.7746 47.9108 72.7 39.3691L72.5818 25.8362C72.5624 23.6153 72.0547 21.4994 71.1549 19.5893C70.7334 16.4414 68.7992 13.513 65.6661 11.8741L45.5451 1.34896C41.6433 -0.692064 36.7595 0.694759 34.6368 4.44652C33.5103 6.43763 33.3878 8.69468 34.1043 10.6797L12.1289 10.8571C7.68719 10.893 4.11673 14.3843 4.15403 18.6551C4.19133 22.926 7.82226 26.3591 12.2639 26.3233L20.5598 26.2563C20.3997 26.8756 20.3174 27.5242 20.3232 28.1918C20.3392 30.0206 21.0141 31.6958 22.1294 33.0107Z" fill="white"/>
</g>
<defs>
<filter id="filter0_d_24_45" x="0.153687" y="0.407288" width="76.5469" height="62.7531" filterUnits="userSpaceOnUse" color-interpolation-filters="sRGB">
<feFlood flood-opacity="0" result="BackgroundImageFix"/>
<feColorMatrix in="SourceAlpha" type="matrix" values="0 0 0 0 0 0 0 0 0 0 0 0 0 0 0 0 0 0 127 0" result="hardAlpha"/>
<feOffset dy="4"/>
<feGaussianBlur stdDeviation="2"/>
<feComposite in2="hardAlpha" operator="out"/>
<feColorMatrix type="matrix" values="0 0 0 0 0 0 0 0 0 0 0 0 0 0 0 0 0 0 0.25 0"/>
<feBlend mode="normal" in2="BackgroundImageFix" result="effect1_dropShadow_24_45"/>
<feBlend mode="normal" in="SourceGraphic" in2="effect1_dropShadow_24_45" result="shape"/>
</filter>
</defs>
</svg>
